# xmcd
#
# Track frame offsets:
#	150
#	16783
#	29707
#	44765
#	57751
#	70790
#	85461
#	100610
#	115596
#	137610
#	156966
#	172446
#	190022
#	208823
#	226868
#	245881
#	263269
#	285297
#
# Disc length: 3998 seconds
#
# Revision: 1
# Processed by: cddbd v1.5.2PL0 Copyright (c) Steve Scherf et al.
# Submitted via: audiograbber 1.83.01
#
DISCID=f80f9c12
DTITLE=JonesTM - HC200729
DYEAR=2007
DGENRE=Country
TTITLE0=Carolina Rain - Dealin'
TTITLE1=Roys - Workin' Girl Blues
TTITLE2=Keith Bryant - She Danced
TTITLE3=Rio Grand - That's My Memory
TTITLE4=Rio Grand - That's My Memory [Hybrid]
TTITLE5=Jake Owen - Something About A Woman
TTITLE6=Montgomery Gentry - What Do Ya Think About That [Radio Edit]
TTITLE7=Trisha Yearwood - Heaven, Heartache And The Power Of Love [Radio Edit]
TTITLE8=Prince - Future Baby Mama [Album Version]
TTITLE9=Joss Stone - Bruised But Not Broken [Album Version]
TTITLE10=Emily King - Walk In My Shoes [Radio Edit]
TTITLE11=Keke Wyatt - Ghetto Rose
TTITLE12=Jeff Golub Feat. Richard Elliot - Ain't No Woman (Like The One I Got)
TTITLE13=Brian Simpson - What Cha Gonna Do? [Album Version]
TTITLE14=Ragan Whiteside - Funktuation [Album Version]
TTITLE15=Michael Manson - Coming Right At Ya
TTITLE16=Kirk Whalum - The Wave [Album Version]
TTITLE17=Lao Tizer - Diversify [Radio Edit]
EXTD=
EXTT0=
EXTT1=
EXTT2=
EXTT3=
EXTT4=
EXTT5=
EXTT6=
EXTT7=
EXTT8=
EXTT9=
EXTT10=
EXTT11=
EXTT12=
EXTT13=
EXTT14=
EXTT15=
EXTT16=
EXTT17=
PLAYORDER=
